<svg xmlns="http://www.w3.org/2000/svg" viewBox="0 0 16 16" width="25" height="25" baseProfile="basic"><path fill="#194fc6" d="M8 0C3.6 0 0 3.6 0 8s3.6 8 8 8 8-3.6 8-8-3.6-8-8-8z"/><path fill="#a2e4f4" d="M9.984 15.206c0-.262.01-1.125.01-2.195 0-.746-.256-1.234-.543-1.482 1.782-.198 3.653-.874 3.653-3.948 0-.873-.31-1.587-.822-2.147.082-.202.357-1.016-.08-2.117 0 0-.67-.215-2.198.82A7.741 7.741 0 008 3.869a7.672 7.672 0 00-2.002.269c-1.528-1.035-2.2-.82-2.2-.82-.436 1.101-.161 1.915-.079 2.117a3.094 3.094 0 00-.823 2.147c0 3.066 1.867 3.752 3.644 3.954-.229.2-.435.552-.508 1.069-.456.205-1.615.558-2.328-.665 0 0-.423-.768-1.225-.824 0 0-.781-.01-.055.486 0 0 .524.246.888 1.17 0 0 .47 1.556 2.695 1.072.004.668.011 1.171.011 1.361 0 .209-.144.449-.531.386.79.262 1.634.409 2.513.409.88 0 1.724-.147 2.516-.41-.39.066-.532-.174-.532-.384z"/></svg>