<svg xmlns="http://www.w3.org/2000/svg" viewBox="0 0 256 256" width="25" height="25"><g fill="none" stroke-miterlimit="10" font-family="none" font-weight="none" font-size="none" text-anchor="none" style="mix-blend-mode:normal"><path d="M128 26.667C72.035 26.667 26.667 72.035 26.667 128c0 55.965 45.368 101.333 101.333 101.333 55.965 0 101.333-45.368 101.333-101.333 0-55.965-45.368-101.333-101.333-101.333z" fill="#194fc6"/><path d="M141.717 154.859h26.224l4.118-26.64h-30.347v-14.56c0-11.067 3.616-20.88 13.968-20.88h16.635V69.53c-2.923-.395-9.104-1.259-20.784-1.259-24.39 0-38.688 12.88-38.688 42.224v17.723H87.77v26.64h25.072v73.22c4.965.748 9.994 1.254 15.157 1.254 4.667 0 9.221-.426 13.717-1.034z" fill="#fff"/></g></svg>