<svg xmlns="http://www.w3.org/2000/svg" viewBox="0 0 256 256" width="25" height="25"><g fill="none" stroke-miterlimit="10" font-family="none" font-weight="none" font-size="none" text-anchor="none" style="mix-blend-mode:normal"><path d="M128 21.333C69.09 21.333 21.333 69.09 21.333 128c0 58.91 47.757 106.667 106.667 106.667 58.91 0 106.667-47.757 106.667-106.667 0-58.91-47.757-106.667-106.667-106.667z" fill="#194fc6"/><path d="M74.667 101.333H96v80H74.667zm10.602-10.666h-.117c-6.368 0-10.485-4.747-10.485-10.672 0-6.054 4.245-10.662 10.725-10.662 6.49 0 10.485 4.608 10.608 10.662 0 5.925-4.117 10.672-10.73 10.672zm101.398 40c0-16.203-13.131-29.334-29.334-29.334-9.93 0-18.693 4.95-24 12.502v-12.502H112v80h21.333v-42.666c0-8.838 7.163-16 16-16 8.838 0 16 7.162 16 16v42.666h21.334v-50.666z" fill="#fff"/></g></svg>